<svg width="22" height="19" viewBox="0 0 22 19" fill="none" xmlns="http://www.w3.org/2000/svg">
<path fill-rule="evenodd" clip-rule="evenodd" d="M7.4277 0.882622C7.8477 0.882622 8.1887 1.21701 8.1887 1.62984C8.1887 2.04169 7.8487 2.37608 7.4277 2.37608L5.7987 2.37706C4.4467 2.37902 3.3467 3.45866 3.3467 4.78541V6.64463C3.3467 7.05648 3.0047 7.39185 2.5847 7.39185C2.1647 7.39185 1.8237 7.05648 1.8237 6.64463V4.78541C1.8237 2.63594 3.6067 0.885564 5.7977 0.883602L7.4267 0.882622H7.4277ZM14.6006 0.882916H16.1936C18.3906 0.882916 20.1766 2.63427 20.1766 4.78865V6.64492C20.1766 7.05678 19.8366 7.39214 19.4156 7.39214C18.9956 7.39214 18.6546 7.05678 18.6546 6.64492V4.78865C18.6546 3.45797 17.5506 2.37539 16.1936 2.37539H14.6006C14.1806 2.37539 13.8396 2.04199 13.8396 1.63013C13.8396 1.2173 14.1806 0.882916 14.6006 0.882916ZM13.7625 4.62528H8.2385C6.9745 4.63803 5.9585 5.65099 5.9695 6.89145V8.13681C5.9725 8.28194 6.0915 8.40059 6.2395 8.40549H15.7595C15.9085 8.40157 16.0275 8.28292 16.0325 8.13681V6.89145C16.0335 6.2923 15.7975 5.71669 15.3715 5.28817C14.9485 4.86357 14.3675 4.62528 13.7625 4.62528ZM0.762 9.92386H21.239C21.659 9.92386 22 10.2582 22 10.6711C22 11.0829 21.659 11.4163 21.239 11.4163H20.177V14.9759C20.177 17.1313 18.39 18.8826 16.194 18.8826H14.601C14.18 18.8826 13.839 18.5482 13.839 18.1354C13.839 17.7236 14.18 17.3892 14.601 17.3892H16.194C17.551 17.3892 18.655 16.3076 18.655 14.9759V11.4163H16.032V12.4077C16.042 13.6482 15.027 14.6621 13.762 14.6739H8.238C6.974 14.6621 5.959 13.6482 5.969 12.4077V11.4163H3.346V14.9798C3.346 16.3066 4.447 17.3862 5.8 17.3882L7.428 17.3892C7.848 17.3892 8.189 17.7236 8.189 18.1354C8.188 18.5482 7.848 18.8826 7.427 18.8826L5.798 18.8816C3.607 18.8797 1.823 17.1293 1.823 14.9798V11.4163H0.762C0.342 11.4163 0 11.0829 0 10.6711C0 10.2582 0.342 9.92386 0.762 9.92386Z" fill="#00F6FF"/>
</svg>
